<mxfile host="app.diagrams.net" modified="2023-02-13T16:35:01.883Z" agent="5.0 (Windows NT 10.0; Win64; x64) AppleWebKit/537.36 (KHTML, like Gecko) Chrome/109.0.0.0 Safari/537.36 Edg/109.0.1518.78" etag="lyTOVfcg3IIIhvN2nYOl" version="20.8.20" type="github">
  <diagram name="第 1 页" id="_UjPobolADmWBxvbTM19">
    <mxGraphModel dx="2364" dy="1216" grid="0" gridSize="10" guides="1" tooltips="1" connect="1" arrows="1" fold="1" page="1" pageScale="1" pageWidth="1169" pageHeight="827" math="0" shadow="1">
      <root>
        <mxCell id="0" />
        <mxCell id="1" parent="0" />
        <mxCell id="vYJ-5XcwqRUKfoO3QsCi-1" value="Progress&#xa;reports" style="text;spacingTop=-5;align=center;rounded=1;" vertex="1" parent="1">
          <mxGeometry x="2049" y="762" width="30" height="20" as="geometry" />
        </mxCell>
        <mxCell id="vYJ-5XcwqRUKfoO3QsCi-5" value="算出关节角度" style="shape=process;whiteSpace=wrap;align=center;verticalAlign=middle;size=0.0475;fontStyle=1;strokeWidth=3;fillColor=#1ba1e2;rounded=1;fontSize=30;fontColor=#ffffff;strokeColor=#006EAF;" vertex="1" parent="1">
          <mxGeometry x="1478" y="771.5" width="330" height="135" as="geometry" />
        </mxCell>
        <mxCell id="vYJ-5XcwqRUKfoO3QsCi-10" value="传入控制信号" style="whiteSpace=wrap;align=center;verticalAlign=middle;fontStyle=1;strokeWidth=3;fillColor=#d5e8d4;rounded=1;fontSize=30;strokeColor=#82b366;" vertex="1" parent="1">
          <mxGeometry x="598" y="769" width="232" height="140" as="geometry" />
        </mxCell>
        <mxCell id="vYJ-5XcwqRUKfoO3QsCi-11" value="陀螺仪检测姿态" style="whiteSpace=wrap;align=center;verticalAlign=middle;fontStyle=1;strokeWidth=3;fillColor=#d5e8d4;rounded=1;fontSize=30;strokeColor=#82b366;" vertex="1" parent="1">
          <mxGeometry x="598" y="1029" width="232" height="140" as="geometry" />
        </mxCell>
        <mxCell id="vYJ-5XcwqRUKfoO3QsCi-12" value="由不同步态&#xa;算出足端坐标" style="whiteSpace=wrap;align=center;verticalAlign=middle;fontStyle=1;strokeWidth=3;fillColor=#d5e8d4;rounded=1;fontSize=30;strokeColor=#82b366;" vertex="1" parent="1">
          <mxGeometry x="1040" y="769" width="232" height="140" as="geometry" />
        </mxCell>
        <mxCell id="vYJ-5XcwqRUKfoO3QsCi-13" value="由身体姿态&#xa;算出足端坐标" style="whiteSpace=wrap;align=center;verticalAlign=middle;fontStyle=1;strokeWidth=3;fillColor=#d5e8d4;rounded=1;fontSize=30;strokeColor=#82b366;" vertex="1" parent="1">
          <mxGeometry x="1040" y="1031" width="232" height="140" as="geometry" />
        </mxCell>
        <mxCell id="vYJ-5XcwqRUKfoO3QsCi-14" value="" style="endArrow=classic;html=1;rounded=0;fontSize=30;exitX=1;exitY=0.5;exitDx=0;exitDy=0;entryX=0;entryY=0.5;entryDx=0;entryDy=0;strokeWidth=6;" edge="1" parent="1" source="vYJ-5XcwqRUKfoO3QsCi-10" target="vYJ-5XcwqRUKfoO3QsCi-12">
          <mxGeometry width="50" height="50" relative="1" as="geometry">
            <mxPoint x="1260" y="729" as="sourcePoint" />
            <mxPoint x="950" y="709" as="targetPoint" />
          </mxGeometry>
        </mxCell>
        <mxCell id="vYJ-5XcwqRUKfoO3QsCi-15" value="" style="endArrow=classic;html=1;rounded=0;fontSize=30;exitX=1;exitY=0.5;exitDx=0;exitDy=0;entryX=0;entryY=0.5;entryDx=0;entryDy=0;strokeWidth=6;" edge="1" parent="1" source="vYJ-5XcwqRUKfoO3QsCi-11" target="vYJ-5XcwqRUKfoO3QsCi-13">
          <mxGeometry width="50" height="50" relative="1" as="geometry">
            <mxPoint x="870" y="1069" as="sourcePoint" />
            <mxPoint x="1080" y="1069" as="targetPoint" />
          </mxGeometry>
        </mxCell>
        <mxCell id="vYJ-5XcwqRUKfoO3QsCi-16" value="" style="endArrow=classic;html=1;rounded=0;fontSize=30;exitX=1;exitY=0.5;exitDx=0;exitDy=0;strokeWidth=6;entryX=0;entryY=0.5;entryDx=0;entryDy=0;" edge="1" parent="1" source="vYJ-5XcwqRUKfoO3QsCi-12" target="vYJ-5XcwqRUKfoO3QsCi-5">
          <mxGeometry width="50" height="50" relative="1" as="geometry">
            <mxPoint x="1350" y="829" as="sourcePoint" />
            <mxPoint x="1470" y="839" as="targetPoint" />
          </mxGeometry>
        </mxCell>
        <mxCell id="vYJ-5XcwqRUKfoO3QsCi-17" value="" style="endArrow=classic;html=1;rounded=0;fontSize=30;exitX=1;exitY=0.5;exitDx=0;exitDy=0;strokeWidth=6;" edge="1" parent="1" source="vYJ-5XcwqRUKfoO3QsCi-13">
          <mxGeometry width="50" height="50" relative="1" as="geometry">
            <mxPoint x="1330" y="1109" as="sourcePoint" />
            <mxPoint x="1400" y="839" as="targetPoint" />
            <Array as="points">
              <mxPoint x="1400" y="1101" />
            </Array>
          </mxGeometry>
        </mxCell>
        <mxCell id="vYJ-5XcwqRUKfoO3QsCi-19" value="" style="endArrow=classic;html=1;rounded=0;fontSize=30;exitX=1;exitY=0.5;exitDx=0;exitDy=0;strokeWidth=6;" edge="1" parent="1" source="vYJ-5XcwqRUKfoO3QsCi-5">
          <mxGeometry width="50" height="50" relative="1" as="geometry">
            <mxPoint x="1880" y="859" as="sourcePoint" />
            <mxPoint x="2040" y="839" as="targetPoint" />
          </mxGeometry>
        </mxCell>
        <mxCell id="vYJ-5XcwqRUKfoO3QsCi-20" value="发送数据给执行器" style="whiteSpace=wrap;align=center;verticalAlign=middle;fontStyle=1;strokeWidth=3;fillColor=#FFFFCC;rounded=1;fontSize=30;" vertex="1" parent="1">
          <mxGeometry x="2040" y="769" width="200" height="155" as="geometry" />
        </mxCell>
        <mxCell id="vYJ-5XcwqRUKfoO3QsCi-21" value="" style="endArrow=classic;html=1;rounded=0;fontSize=30;exitX=0.5;exitY=1;exitDx=0;exitDy=0;strokeWidth=6;entryX=0;entryY=0.5;entryDx=0;entryDy=0;" edge="1" parent="1" source="vYJ-5XcwqRUKfoO3QsCi-20" target="vYJ-5XcwqRUKfoO3QsCi-10">
          <mxGeometry width="50" height="50" relative="1" as="geometry">
            <mxPoint x="1980" y="1159" as="sourcePoint" />
            <mxPoint x="510" y="829" as="targetPoint" />
            <Array as="points">
              <mxPoint x="2140" y="1289" />
              <mxPoint x="440" y="1289" />
              <mxPoint x="440" y="839" />
            </Array>
          </mxGeometry>
        </mxCell>
        <mxCell id="vYJ-5XcwqRUKfoO3QsCi-23" value="循环" style="edgeLabel;html=1;align=center;verticalAlign=middle;resizable=0;points=[];fontSize=30;" vertex="1" connectable="0" parent="vYJ-5XcwqRUKfoO3QsCi-21">
          <mxGeometry x="-0.0348" y="5" relative="1" as="geometry">
            <mxPoint x="204" as="offset" />
          </mxGeometry>
        </mxCell>
        <mxCell id="vYJ-5XcwqRUKfoO3QsCi-22" value="" style="endArrow=classic;html=1;rounded=0;strokeWidth=6;fontSize=30;entryX=0;entryY=0.5;entryDx=0;entryDy=0;" edge="1" parent="1" target="vYJ-5XcwqRUKfoO3QsCi-11">
          <mxGeometry width="50" height="50" relative="1" as="geometry">
            <mxPoint x="440" y="1099" as="sourcePoint" />
            <mxPoint x="585" y="989" as="targetPoint" />
          </mxGeometry>
        </mxCell>
      </root>
    </mxGraphModel>
  </diagram>
</mxfile>
